# AST/ASF file generated using VICON BodyLanguage
# -----------------------------------------------
:version 1.10
:name VICON
:units
  mass 1.0
  length 0.45
  angle deg
:documentation
   .ast/.asf automatically generated from VICON data using
   VICON BodyBuilder and BodyLanguage model FoxedUp or BRILLIANT.MOD
:root
   order TX TY TZ RX RY RZ
   axis XYZ
   position 0 0 0  
   orientation 0 0 0 
:bonedata
  begin
     id 1 
     name lhipjoint
     direction 0.700308 -0.549349 0.455834 
     length 2.59063 
     axis 0 0 0  XYZ
  end
  begin
     id 2 
     name lfemur
     direction 0.34202 -0.939693 0  
     length 6.31066  
     axis 0 0 20  XYZ
    dof rx ry rz
    limits (-160.0 20.0)
           (-70.0 70.0)
           (-60.0 70.0)
  end
  begin
     id 3 
     name ltibia
     direction 0.34202 -0.939693 0   
     length 7.36093   
     axis 0 0 20   XYZ
    dof rx
    limits (-10.0 170.0)
  end
  begin
     id 4 
     name lfoot
     direction 0.0905332 -0.248738 0.96433   
     length 2.0233   
     axis -90 7.62852e-016 20   XYZ
    dof rx rz
    limits (-45.0 90.0)
           (-70.0 20.0)
  end
  begin
     id 5 
     name ltoes
     direction 1.53573e-011 -4.21855e-011 1   
     length 1.01524   
     axis -90 7.62852e-016 20   XYZ
    dof rx
    limits (-90.0 20.0)
  end
  begin
     id 6 
     name rhipjoint
     direction -0.61416 -0.607328 0.503944   
     length 2.34332  
     axis 0 0 0  XYZ 
  end
  begin
     id 7 
     name rfemur
     direction -0.34202 -0.939693 0   
     length 6.58548   
     axis 0 0 -20   XYZ
    dof rx ry rz
    limits (-160.0 20.0)
           (-70.0 70.0)
           (-70.0 60.0)
  end
  begin
     id 8 
     name rtibia
     direction -0.34202 -0.939693 0   
     length 7.20707   
     axis 0 0 -20   XYZ
    dof rx
    limits (-10.0 170.0)
 end
 begin
     id 9 
     name rfoot
     direction -0.136772 -0.375778 0.916561   
     length 1.92184  
     axis -90 -7.62852e-016 -20   XYZ
    dof rx rz
    limits (-45.0 90.0)
           (-20.0 70.0)
  end
  begin
     id 10 
     name rtoes
     direction -1.53535e-011 -4.21828e-011 1   
     length 0.951089   
     axis -90 -7.62852e-016 -20   XYZ
    dof rx
    limits (-90.0 20.0)
  end
  begin
     id 11 
     name lowerback
     direction -0.0444974 0.988086 -0.147332   
     length 1.9609   
     axis 0 0 0   XYZ
    dof rx ry rz
    limits (-20.0 45.0)
           (-30.0 30.0)
           (-30.0 30.0)
  end
  begin
     id 12 
     name upperback
     direction 0.00613146 0.999513 0.0306081   
     length 1.94944   
     axis 0 0 0   XYZ
    dof rx ry rz
    limits (-20.0 45.0)
           (-30.0 30.0)
           (-30.0 30.0)
  end
  begin
     id 13 
     name thorax
     direction 0.0254621 0.994518 0.101418   
     length 2.0119   
     axis 0 0 0   XYZ
    dof rx ry rz
    limits (-20.0 45.0)
           (-30.0 30.0)
           (-30.0 30.0)
  end
  begin
     id 14 
     name lowerneck
     direction 0.0168698 0.977854 0.208608   
     length 1.6375   
     axis 0 0 0   XYZ
    dof rx ry rz
    limits (-20.0 45.0)
           (-30.0 30.0)
           (-30.0 30.0)
  end
  begin
     id 15 
     name upperneck
     direction -0.0283988 0.989338 -0.142843   
     length 1.6851   
     axis 0 0 0   XYZ
    dof rx ry rz
    limits (-20.0 45.0)
           (-30.0 30.0)
           (-30.0 30.0)
  end
  begin
     id 16
     name head
     direction -0.0129422 0.99741 -0.0707489  
     length 1.69029  
     axis 0 0 0   XYZ
    dof rx ry rz
    limits (-20.0 45.0)
           (-30.0 30.0)
           (-30.0 30.0)
  end
  begin
     id 17 
     name lclavicle
     direction 0.820295 0.564628 -0.0911715  
     length 3.16484  
     axis 0 0 0   XYZ
    dof ry rz
    limits (-20.0 10.0)
           (0.0 20.0)
  end
  begin
     id 18 
     name lhumerus
     direction 1 -4.48969e-011 1.00186e-027   
     length 5.17853   
     axis 180 -30 -90   XYZ
    dof rx ry rz
    limits (-60.0 90.0)
           (-90.0 90.0)
           (-90.0 90.0)
  end
  begin
     id 19
     name lradius
     direction 1 -4.48966e-011 -1.52922e-027   
     length 3.40399   
     axis 180 -30 -90   XYZ
    dof rx
    limits (-10.0 170.0)
  end
  begin
     id 20
     name lwrist
     direction 1 -4.48981e-011 -3.80893e-027   
     length 1.70199   
     axis 1.1049e-015 90 90   XYZ
    dof ry
    limits (-180.0 0.0)
 end
  begin
     id 21 
     name lhand
     direction 1 -4.48957e-011 -7.61786e-027   
     length 0.708964   
     axis 4.86085e-015 90 90   XYZ
    dof rx rz
    limits (-90.0 90.0)
           (-45.0 45.0)
  end
  begin
     id 22 
     name lfingers
     direction 1 -4.48929e-011 -1.52357e-026   
     length 0.571585   
     axis 9.7217e-015 90 90   XYZ
    dof rx
    limits (0.0 90.0)
  end
  begin
     id 23
     name lthumb
     direction 0.707107 -6.34905e-011 0.707107   
     length 0.820685   
     axis -90 45 2.85299e-015   XYZ
    dof rx rz
    limits (-45.0 45.0)
           (-45.0 45.0)
  end
  begin
     id 24 
     name rclavicle
     direction -0.858602 0.463947 -0.218075   
     length 3.35137  
     axis 0 0 0   XYZ 
    dof ry rz
    limits (-10.0 20.0)
           (-20.0 0.0)
  end
  begin
     id 25 
     name rhumerus
     direction -1 -4.48969e-011 -1.98511e-027  
     length 5.42351   
     axis 180 30 90   XYZ
    dof rx ry rz
    limits (-90.0 60.0)
           (-90.0 90.0)
           (-90.0 90.0)
  end
  begin
     id 26 
     name rradius
     direction -1 -4.48961e-011 -2.82624e-027   
     length 3.42066   
     axis 180 30 90   XYZ
    dof rx
    limits (-10.0 170.0)
  end
  begin
     id 27 
     name rwrist
     direction -1 -4.48966e-011 -3.80893e-027   
     length 1.71033   
     axis 1.1049e-015 -90 -90   XYZ
    dof ry
    limits (-180.0 0.0)
  end
  begin
     id 28
     name rhand
     direction -1 -4.48964e-011 -7.61786e-027   
     length 0.743608   
     axis 4.86085e-015 -90 -90   XYZ
    dof rx rz
    limits (-90.0 90.0)
           (-45.0 45.0)
  end
  begin
     id 29
     name rfingers
     direction -1 -4.48961e-011 -1.52357e-026   
     length 0.599516   
     axis 9.7217e-015 -90 -90   XYZ
    dof rx
    limits (0.0 90.0)
  end
  begin
     id 30
     name rthumb
     direction -0.707107 -6.34913e-011 0.707107   
     length 0.860789   
     axis -90 -45 -2.85299e-015   XYZ
    dof rx rz
    limits (-45.0 45.0)
           (-45.0 45.0)
  end
:hierarchy
  begin
    root lhipjoint rhipjoint lowerback
    lhipjoint lfemur
    lfemur ltibia
    ltibia lfoot
    lfoot ltoes
    rhipjoint rfemur
    rfemur rtibia
    rtibia rfoot
    rfoot rtoes
    lowerback upperback
    upperback thorax
    thorax lowerneck lclavicle rclavicle
    lowerneck upperneck
    upperneck head
    lclavicle lhumerus
    lhumerus lradius
    lradius lwrist
    lwrist lhand lthumb
    lhand lfingers
    rclavicle rhumerus
    rhumerus rradius
    rradius rwrist
    rwrist rhand rthumb
    rhand rfingers
  end

#!OML:ASF E:\mmandel\Project 1\Capture day 1\Session 2\Subject.ASF
:FULLY-SPECIFIED
:DEGREES
597
root 6.73221 15.6553 -2.89157 297.205 80.3584 281.266
lowerback 24.1301 2.24464 -2.61626
upperback 2.86393 2.42949 -0.196738
thorax -10.3901 1.32614 0.47751
lowerneck -16.573 -1.20499 2.98595
upperneck -1.07931 -1.96932 0.0514325
head 2.49668 -0.893365 -0.646944
rclavicle -1.82882e-014 1.59028e-015
rhumerus -20.3057 18.9385 -81.6487
rradius 54.1005
rwrist -18.8045
rhand -8.3116 30.3453
rfingers 7.12502
rthumb 17.609 1.12271
lclavicle -1.82882e-014 1.59028e-015
lhumerus -20.7126 -28.6847 64.7569
lradius 47.1343
lwrist 35.0455
lhand -19.3013 333.378
lfingers 7.12502
lthumb 7.01428 3.24211
rfemur -38.086 -19.1072 19.6854
rtibia 62.4551
rfoot -18.5105 -6.89744
rtoes -19.1389
lfemur -47.834 14.3735 -7.51758
ltibia 51.0902
lfoot -15.1259 -0.975233
ltoes -3.48724
598
root 6.76665 15.6521 -2.91103 296.991 80.1911 281.018
lowerback 24.1731 2.18263 -2.59487
upperback 2.90525 2.3552 -0.20396
thorax -10.3627 1.29098 0.481033
lowerneck -16.5824 -1.25483 2.96867
upperneck -1.19114 -2.03567 0.253796
head 2.46022 -0.9179 -0.581272
rclavicle -3.4191e-014 -1.11319e-014
rhumerus -20.4092 18.714 -81.8577
rradius 54.6729
rwrist -18.2617
rhand -7.94761 30.464
rfingers 7.12502
rthumb 17.9592 1.27319
lclavicle -3.4191e-014 -1.11319e-014
lhumerus -19.6186 -28.6273 63.6978
lradius 47.3707
lwrist 35.1547
lhand -19.1741 333.737
lfingers 7.12502
lthumb 7.13713 3.59679
rfemur -38.4673 -19.0379 19.8595
rtibia 61.9072
rfoot -18.5568 -6.25418
rtoes -18.8479
lfemur -47.8948 14.608 -7.47027
ltibia 51.3514
lfoot -15.2688 -1.19784
ltoes -3.01115
599
root 6.79999 15.6561 -2.92768 296.866 80.1382 280.837
lowerback 24.2942 2.1034 -2.6522
upperback 2.86261 2.22656 -0.249424
thorax -10.4714 1.23248 0.500558
lowerneck -16.5978 -1.20798 2.79865
upperneck -1.13819 -1.95648 0.572337
head 2.4867 -0.865005 -0.442247
rclavicle -1.43125e-014 2.06736e-014
rhumerus -20.6713 18.5282 -82.1609
rradius 55.2799
rwrist -17.7625
rhand -7.58199 30.6233
rfingers 7.12502
rthumb 18.311 1.46513
lclavicle -1.43125e-014 2.06736e-014
lhumerus -18.7698 -28.6059 62.6969
lradius 47.5724
lwrist 35.1957
lhand -19.2587 333.581
lfingers 7.12502
lthumb 7.05545 3.44364
rfemur -38.8812 -18.9092 19.9619
rtibia 61.2849
rfoot -18.672 -6.00467
rtoes -19.3365
lfemur -47.9415 14.6715 -7.49635
ltibia 51.5717
lfoot -15.4122 -1.24356
ltoes -2.75953
600
root 6.83059 15.6561 -2.93924 297.138 80.0676 281.036
lowerback 24.4515 2.07195 -2.79152
upperback 2.77635 2.13546 -0.281634
thorax -10.6536 1.19517 0.567763
lowerneck -16.6929 -1.14553 2.88743
upperneck -0.994553 -1.8991 0.582248
head 2.55407 -0.834896 -0.45278
rclavicle 7.95139e-016 -2.70347e-014
rhumerus -20.9727 18.3218 -82.4724
rradius 55.858
rwrist -17.2416
rhand -7.40921 30.8969
rfingers 7.12502
rthumb 18.4772 1.75441
lclavicle 7.95139e-016 -2.70347e-014
lhumerus -17.9404 -28.5339 61.7217
lradius 47.6912
lwrist 34.9724
lhand -19.3387 333.28
lfingers 7.12502
lthumb 6.97817 3.14493
rfemur -39.3094 -18.5375 20.0543
rtibia 60.6196
rfoot -19.0378 -5.97773
rtoes -19.8131
lfemur -47.972 14.7023 -7.45561
ltibia 51.7726
lfoot -15.5531 -1.23277
ltoes -2.12121
601
root 6.86009 15.6474 -2.94782 297.511 79.9357 281.315
lowerback 24.5389 2.0684 -2.91765
upperback 2.72303 2.09102 -0.28191
thorax -10.7636 1.17992 0.650736
lowerneck -16.9329 -1.00166 2.62803
upperneck -1.15486 -1.66078 0.784924
head 2.54909 -0.704179 -0.324364
rclavicle -3.02153e-014 0
rhumerus -21.1599 18.0566 -82.7218
rradius 56.3119
rwrist -16.6077
rhand -7.30876 31.1729
rfingers 7.12502
rthumb 18.5738 2.03966
lclavicle -3.02153e-014 0
lhumerus -16.9665 -28.4059 60.7439
lradius 47.7842
lwrist 34.6687
lhand -19.3251 333.632
lfingers 7.12502
lthumb 6.99137 3.49694
rfemur -39.776 -18.0705 20.1971
rtibia 59.9347
rfoot -19.3774 -6.16502
rtoes -20.4957
lfemur -48.024 14.7636 -7.3303
ltibia 51.9758
lfoot -15.6879 -1.24361
ltoes -1.18703
602
root 6.8916 15.6405 -2.9542 297.971 79.8745 281.698
lowerback 24.4483 2.06631 -3.11637
upperback 2.7723 2.04199 -0.275576
thorax -10.6642 1.16559 0.791565
lowerneck -17.0989 -1.063 2.18579
upperneck -1.10706 -1.6786 1.22479
head 2.60346 -0.69243 -0.105231
rclavicle 2.06736e-014 1.74931e-014
rhumerus -21.2123 17.7759 -82.8816
rradius 56.7735
rwrist -15.9441
rhand -7.14529 31.4568
rfingers 7.12502
rthumb 18.7311 2.33863
lclavicle 2.06736e-014 1.74931e-014
lhumerus -15.9374 -28.3551 59.8229
lradius 47.839
lwrist 34.744
lhand -19.1741 334.229
lfingers 7.12502
lthumb 7.13707 4.08843
rfemur -40.2116 -17.6138 20.2324
rtibia 59.2035
rfoot -19.77 -6.2795
rtoes -20.681
lfemur -48.0566 14.8563 -7.3042
ltibia 52.1668
lfoot -15.8414 -1.23423
ltoes -0.83642
603
root 6.92423 15.6405 -2.95774 298.952 79.8121 282.653
lowerback 24.3708 2.09651 -3.37772
upperback 2.84689 2.01831 -0.286064
thorax -10.5454 1.16509 0.940976
lowerneck -17.0427 -1.00544 2.68984
upperneck -1.27633 -1.67378 0.78316
head 2.52632 -0.709621 -0.336827
rclavicle 0 0
rhumerus -21.2871 17.4887 -83.0566
rradius 57.2732
rwrist -15.2665
rhand -7.10904 31.79
rfingers 7.12502
rthumb 18.766 2.67517
lclavicle 0 0
lhumerus -15.0012 -28.2212 58.9311
lradius 47.9303
lwrist 34.7862
lhand -18.9517 334.589
lfingers 7.12502
lthumb 7.35174 4.44084
rfemur -40.5684 -16.9614 20.1662
rtibia 58.4242
rfoot -20.2265 -6.26814
rtoes -20.2861
lfemur -47.9777 15.0567 -7.31372
ltibia 52.3327
lfoot -16.0483 -1.24633
ltoes -0.609428
604
root 6.95481 15.6401 -2.9611 300.065 79.7637 283.686
lowerback 24.3769 2.11626 -3.58432
upperback 2.82189 1.98215 -0.33089
thorax -10.5803 1.15587 1.02053
lowerneck -17.2624 -0.918792 2.69089
upperneck -1.24142 -1.56404 0.805649
head 2.58018 -0.651138 -0.323584
rclavicle -2.38542e-015 -3.33958e-014
rhumerus -21.4826 17.1755 -83.2905
rradius 57.7277
rwrist -14.6811
rhand -6.93812 32.046
rfingers 7.12502
rthumb 18.9303 2.94722
lclavicle -2.38542e-015 -3.33958e-014
lhumerus -14.2877 -27.9748 58.093
lradius 48.1975
lwrist 34.6569
lhand -19.2265 334.225
lfingers 7.12502
lthumb 7.08655 4.0861
rfemur -40.9593 -16.2392 20.0414
rtibia 57.6012
rfoot -20.4407 -6.38686
rtoes -19.5001
lfemur -47.9636 15.2908 -7.3755
ltibia 52.4821
lfoot -16.2918 -1.23174
ltoes -0.934387
605
root 6.9831 15.635 -2.96753 301.002 79.7575 284.462
lowerback 24.3471 2.09681 -3.67626
upperback 2.77202 1.92175 -0.403673
thorax -10.6183 1.12969 1.01183
lowerneck -17.6631 -1.01944 1.66495
upperneck -1.01882 -1.55147 1.84795
head 2.74971 -0.59405 0.197707
rclavicle 1.90833e-014 -1.90833e-014
rhumerus -21.6153 16.9355 -83.4667
rradius 58.189
rwrist -14.3128
rhand -6.63555 32.2024
rfingers 7.12502
rthumb 19.2213 3.1323
lclavicle 1.90833e-014 -1.90833e-014
lhumerus -13.4683 -27.7804 57.2752
lradius 48.3801
lwrist 34.6662
lhand -19.7538 333.682
lfingers 7.12502
lthumb 6.57745 3.56019
rfemur -41.4204 -15.6704 19.9176
rtibia 56.7551
rfoot -20.5609 -6.4234
rtoes -19.0304
lfemur -48.0715 15.4228 -7.47959
ltibia 52.6416
lfoot -16.5108 -1.18724
ltoes -1.09631
606
root 7.01086 15.6325 -2.97309 301.434 79.6762 284.762
lowerback 24.3084 2.06393 -3.61999
upperback 2.75229 1.88657 -0.467112
thorax -10.6143 1.109 0.92122
lowerneck -17.6555 -1.17545 1.17461
upperneck -1.1286 -1.68275 2.54108
head 2.72362 -0.628478 0.503075
rclavicle -2.06736e-014 1.90833e-014
rhumerus -21.677 16.6105 -83.6262
rradius 58.6512
rwrist -13.9676
rhand -6.63983 32.4778
rfingers 7.12502
rthumb 19.2172 3.40727
lclavicle -2.06736e-014 1.90833e-014
lhumerus -12.4538 -27.762 56.4048
lradius 48.4102
lwrist 34.7732
lhand -20.1062 333.546
lfingers 7.12502
lthumb 6.23724 3.43425
rfemur -41.8426 -15.1396 19.9072
rtibia 55.905
rfoot -20.7636 -6.42215
rtoes -19.3746
lfemur -48.1627 15.5343 -7.46503
ltibia 52.7932
lfoot -16.6674 -1.212
ltoes -0.94435
607
root 7.03941 15.6281 -2.97383 301.554 79.6287 284.736
lowerback 24.2165 2.00902 -3.58918
upperback 2.73789 1.81895 -0.527518
thorax -10.5753 1.07408 0.860829
lowerneck -17.2813 -1.13332 1.79918
upperneck -1.58187 -1.70797 2.19349
head 2.48523 -0.661997 0.278733
rclavicle 1.35174e-014 2.70347e-014
rhumerus -21.8118 16.1365 -83.8314
rradius 59.1964
rwrist -13.5221
rhand -6.53973 32.6594
rfingers 7.12502
rthumb 19.3134 3.59842
lclavicle 1.35174e-014 2.70347e-014
lhumerus -11.6354 -27.6663 55.5665
lradius 48.5787
lwrist 34.8294
lhand -20.2899 333.425
lfingers 7.12502
lthumb 6.05996 3.31845
rfemur -42.234 -14.5604 19.842
rtibia 55.0353
rfoot -20.9874 -6.5795
rtoes -19.6161
lfemur -48.3175 15.7211 -7.48443
ltibia 52.9332
lfoot -16.7843 -1.34316
ltoes -1.0096
